<svg xmlns="http://www.w3.org/2000/svg" width="28.892" height="38.306" viewBox="0 0 28.892 38.306">
  <g id="map-icon-svg" transform="translate(-5480.25 -4329.25)">
    <circle id="타원_20" data-name="타원 20" cx="9.5" cy="9.5" r="9.5" transform="translate(5485 4335)" fill="#fff"/>
    <path id="타원_20_-_윤곽선" data-name="타원 20 - 윤곽선" d="M9.5,1A8.5,8.5,0,1,0,18,9.5,8.51,8.51,0,0,0,9.5,1m0-1A9.5,9.5,0,1,1,0,9.5,9.5,9.5,0,0,1,9.5,0Z" transform="translate(5485 4335)" fill="#707070"/>
    <path id="serviceMapIcon" d="M15.7,36.523s13.7-12.979,13.7-22.827A13.7,13.7,0,1,0,2,13.7C2,23.544,15.7,36.523,15.7,36.523Zm0-15.979A6.848,6.848,0,1,1,22.544,13.7,6.848,6.848,0,0,1,15.7,20.544Z" transform="translate(5479 4330)" fill="red"/>
    <path id="serviceMapIcon_-_윤곽선" data-name="serviceMapIcon - 윤곽선" d="M15.7,37.556l-.516-.489a74.061,74.061,0,0,1-6.928-7.809,46.436,46.436,0,0,1-4.785-7.509A18.635,18.635,0,0,1,1.25,13.7,14.446,14.446,0,0,1,25.911,3.481,14.352,14.352,0,0,1,30.142,13.7a18.635,18.635,0,0,1-2.217,8.053,46.436,46.436,0,0,1-4.785,7.509,74.061,74.061,0,0,1-6.928,7.809ZM15.7.75A12.961,12.961,0,0,0,2.75,13.7c0,3.86,2.315,8.926,6.694,14.651A74.131,74.131,0,0,0,15.7,35.473a74.213,74.213,0,0,0,6.265-7.143c4.371-5.717,6.681-10.778,6.681-14.634A12.961,12.961,0,0,0,15.7.75Zm0,20.544a7.6,7.6,0,1,1,7.6-7.6A7.607,7.607,0,0,1,15.7,21.294Zm0-13.7a6.1,6.1,0,1,0,6.1,6.1A6.105,6.105,0,0,0,15.7,7.6Z" transform="translate(5479 4330)"/>
  </g>
</svg>
